<svg xmlns="http://www.w3.org/2000/svg" width="209" height="34.784" viewBox="0 0 209 34.784">
  <g id="Nettrux-LOGO" transform="translate(-239.5 -262.892)">
    <g id="Group_2" data-name="Group 2" transform="translate(239.5 262.892)">
      <path id="Path_1" data-name="Path 1" d="M487.489,283.687c0,9.066-4.93,10.116-8.638,10.116-5.893,0-8.638-3.214-8.638-10.116V263.556H466.19v20.131c0,9.08,4.5,14.081,12.66,14.081s12.662-5,12.662-14.081V263.556h-4.024Z" transform="translate(-314.823 -263.111)" fill="#0b78f9"/>
      <path id="Path_2" data-name="Path 2" d="M441.713,274.711c0-7.286-5-11.813-13.056-11.813h-21.8l3.977,3.977,17.826-.011c5.741,0,9.033,2.86,9.033,7.847,0,4.8-3,7.243-8.919,7.243h-3.646l-4.886.026,14.818,15.35h5.519l-10.85-11.392,1.193-.119C437.778,285.134,441.713,281.086,441.713,274.711Z" transform="translate(-295.107 -262.893)" fill="#0b78f9"/>
      <path id="Path_3" data-name="Path 3" d="M326.283,262.9l3.349,4.011,51.719-.032-3.979-3.979Z" transform="translate(-268.336 -262.893)" fill="#0b78f9"/>
      <path id="Path_4" data-name="Path 4" d="M299.728,266.921l17.246-.011-3.35-4.013H298.083a2.234,2.234,0,0,0-2.378,2.436v29.582h0a2.234,2.234,0,0,0,2.378,2.436l16.565.013,2.872-4.038H299.728Z" transform="translate(-258.174 -262.892)" fill="#0b78f9"/>
      <path id="Path_5" data-name="Path 5" d="M346.965,272.069v28.5l4.542-3.991-.013-24.508Z" transform="translate(-275.207 -265.94)" fill="#0b78f9"/>
      <path id="Path_6" data-name="Path 6" d="M386.492,272.069l-.007,28.5,4.542-3.991-.007-24.508Z" transform="translate(-288.339 -265.94)" fill="#0b78f9"/>
      <path id="Path_7" data-name="Path 7" d="M412.791,268.9l-.007,30.768,4.542-3.991-.007-22.112Z" transform="translate(-297.078 -264.889)" fill="#0b78f9"/>
      <path id="Path_8" data-name="Path 8" d="M526.548,279.005l9.857-15.449h-5.032l-7.257,11.637-7.425-11.636h-5.046l9.98,15.631-11.494,18.43h4.542l9.356-14.664,9.362,14.664h5.032Z" transform="translate(-329.423 -263.111)" fill="#0b78f9"/>
      <path id="Path_9" data-name="Path 9" d="M316.623,289.213V285.3h-11.87l2.516,3.913Z" transform="translate(-261.182 -270.336)" fill="#0b78f9"/>
      <path id="Path_10" data-name="Path 10" d="M267.286,262.9h-4.023v28.3l-18.888-28.3H239.5v34.432h4.024v-28.4l18.955,28.4h4.875l-.067-.1Z" transform="translate(-239.5 -262.893)" fill="#0b78f9"/>
    </g>
    <g id="Group_3" data-name="Group 3" transform="translate(239.5 262.892)">
      <path id="Path_11" data-name="Path 11" d="M487.489,283.687c0,9.066-4.93,10.116-8.638,10.116-5.893,0-8.638-3.214-8.638-10.116V263.556H466.19v20.131c0,9.08,4.5,14.081,12.66,14.081s12.662-5,12.662-14.081V263.556h-4.024Z" transform="translate(-314.823 -263.111)" fill="#0b78f9"/>
      <path id="Path_12" data-name="Path 12" d="M441.713,274.711c0-7.286-5-11.813-13.056-11.813h-21.8l3.977,3.977,17.826-.011c5.741,0,9.033,2.86,9.033,7.847,0,4.8-3,7.243-8.919,7.243h-3.646l-4.886.026,14.818,15.35h5.519l-10.85-11.392,1.193-.119C437.778,285.134,441.713,281.086,441.713,274.711Z" transform="translate(-295.107 -262.893)" fill="#0b78f9"/>
      <path id="Path_13" data-name="Path 13" d="M326.283,262.9l3.349,4.011,51.719-.032-3.979-3.979Z" transform="translate(-268.336 -262.893)" fill="#0b78f9"/>
      <path id="Path_14" data-name="Path 14" d="M299.728,266.921l17.246-.011-3.35-4.013H298.083a2.234,2.234,0,0,0-2.378,2.436v29.582h0a2.234,2.234,0,0,0,2.378,2.436l16.565.013,2.872-4.038H299.728Z" transform="translate(-258.174 -262.851)" fill="#0b78f9"/>
      <path id="Path_15" data-name="Path 15" d="M346.965,272.069v28.5l4.542-3.991-.013-24.508Z" transform="translate(-275.207 -265.94)" fill="#0b78f9"/>
      <path id="Path_16" data-name="Path 16" d="M386.492,272.069l-.007,28.5,4.542-3.991-.007-24.508Z" transform="translate(-288.339 -265.94)" fill="#0b78f9"/>
      <path id="Path_17" data-name="Path 17" d="M412.791,268.9l-.007,30.768,4.542-3.991-.007-22.112Z" transform="translate(-297.078 -264.889)" fill="#0b78f9"/>
      <path id="Path_18" data-name="Path 18" d="M526.548,279.005l9.857-15.449h-5.032l-7.257,11.637-7.425-11.636h-5.046l9.98,15.631-11.494,18.43h4.542l9.356-14.664,9.362,14.664h5.032Z" transform="translate(-329.423 -263.111)" fill="#0b78f9"/>
      <path id="Path_19" data-name="Path 19" d="M316.623,289.213V285.3h-11.87l2.516,3.913Z" transform="translate(-261.182 -270.259)" fill="#0b78f9"/>
      <path id="Path_20" data-name="Path 20" d="M267.286,262.9h-4.023v28.3l-18.888-28.3H239.5v34.432h4.024v-28.4l18.955,28.4h4.875l-.067-.1Z" transform="translate(-239.5 -262.893)" fill="#0b78f9"/>
    </g>
  </g>
</svg>
